 http://www.shotpix.com/images/25254515829161244690.jpg


Release Title: Kelly Clarkson - Catch My Breath (2012)

Music video by Kelly Clarkson performing Catch My Breath.

                         1080p Full HD MP4 Video
                                    +
                          128 Kbps/VBR M4A Audio


General
Format                         : MPEG-4
Format profile                 : Base Media / Version 2
Codec ID                       : mp42
File size                      : 39.9 MiB
Duration                       : 4mn 10s

Video
ID                             : 1
Format                         : AVC
Format/Info                    : Advanced Video Codec
Format profile                 : High@L5.0
Format settings, CABAC         : Yes
Format settings, ReFrames      : 5 frames
Codec ID                       : avc1
Codec ID/Info                  : Advanced Video Coding
Duration                       : 4mn 10s
Bit rate mode                  : Variable
Width                          : 1 920 pixels
Height                         : 1 080 pixels
Display aspect ratio           : 16:9
Frame rate mode                : Variable
Frame rate                     : 23.976 fps
Color space                    : YUV
Chroma subsampling             : 4:2:0
Bit depth                      : 8 bits
Scan type                      : Progressive
Bits/(Pixel*Frame)             : 0.024
Stream size                    : 36.0 MiB (90%)
Writing library                : x264 core 128

Audio
ID                             : 2
Format                         : AAC
Format/Info                    : Advanced Audio Codec
Format profile                 : LC
Codec ID                       : 40
Duration                       : 4mn 10s
Bit rate mode                  : Variable
Bit rate                       : 125 Kbps
Maximum bit rate               : 154 Kbps
Channel(s)                     : 2 channels
Channel positions              : Front: L R
Sampling rate                  : 48.0 KHz
Stream size                    : 3.74 MiB (9%)

Subtitles                      : No

Screens:
 
http://www.shotpix.com/images/47755750272691432949.jpg 
http://www.shotpix.com/images/91691057617335897231.jpg

Thumbs:
 
http://www.shotpix.com/images/10620136349753470387.jpg
------------------------------------------------------------------------

Notes:

* Recommended to use latest version VLC Media Player.
* Install shark007 codecs in case of any kind of problem in playback (For non-VLC Media Player users).
* Alternatively, install Core AVC codecs, the fastest decoder that there is coupled with Community Center Codec Pack and play on Windows Media Player Classic.
* Read NFO
* Help in seeding as much as you can. 

Greets to: VYTO, a2zRG, sa1sa staff members at ExtraTorrent, TPB,KAT, 1337x, PublicHD, Ahashare,
SilverTorrent, TorrentMafia, Digtorrent, BTScene, P2PDL, and all others

Encoder Notes: Looking For Early Access To Anything You Can Provide DVDScr, R5, DVDRips, BluRay, Direct Audio, Early Music
Releases, Seedboxes, Links, Dedicated Servers anything u can provide, Advance / Promo CDs/DVDs. If You Got anything to
offer contact me at "prg@hush.com"

Facebook Fan Page: www . facebook . com / p2pdl

                                  Enjoy!